<svg xmlns="http://www.w3.org/2000/svg" viewBox="0 0 14.87 17.19"><defs><style>.cls-1{fill:none;stroke:#60b22f;stroke-miterlimit:10;}</style></defs><g id="Lag_2" data-name="Lag 2"><g id="Lag_2-2" data-name="Lag 2"><path class="cls-1" d="M12,4.94a3.2,3.2,0,1,1-6.39,0A3.86,3.86,0,0,1,7.17,2.21C7.67,1.7,8.85.67,8.85.67L10.35,2C11.34,3,12,3.76,12,4.94Z"/><path class="cls-1" d="M6.88,10.74A3.23,3.23,0,0,1,3.69,14,3.23,3.23,0,0,1,.5,10.74,3.85,3.85,0,0,1,2,8c.51-.52,1.68-1.55,1.68-1.55l1.5,1.32C6.18,8.8,6.88,9.56,6.88,10.74Z"/><path class="cls-1" d="M14.37,13.43a3.2,3.2,0,1,1-6.39,0A3.84,3.84,0,0,1,9.5,10.71c.5-.52,1.68-1.55,1.68-1.55l1.5,1.32C13.67,11.5,14.37,12.25,14.37,13.43Z"/></g></g></svg>