<?xml version="1.0" encoding="utf-8"?>
<!-- Generator: Adobe Illustrator 25.2.3, SVG Export Plug-In . SVG Version: 6.00 Build 0)  -->
<svg version="1.1" id="Layer_1" xmlns="http://www.w3.org/2000/svg" xmlns:xlink="http://www.w3.org/1999/xlink" x="0px" y="0px"
	 viewBox="0 0 512 512" style="enable-background:new 0 0 512 512;" xml:space="preserve">
<style type="text/css">
	.st0{fill:#FFFFFF;}
</style>
<path class="st0" d="M256,49.5c67.3,0,75.2,0.3,101.8,1.5c24.6,1.1,37.9,5.2,46.8,8.7c10.9,4,20.8,10.5,29,18.8
	c8.4,8.1,14.8,18,18.8,29c3.5,8.9,7.6,22.2,8.7,46.8c1.2,26.6,1.5,34.5,1.5,101.8s-0.3,75.2-1.5,101.8c-1.1,24.6-5.2,37.9-8.7,46.8
	c-8.5,22-25.8,39.3-47.8,47.8c-8.9,3.5-22.2,7.6-46.8,8.7c-26.6,1.2-34.5,1.5-101.8,1.5s-75.2-0.3-101.8-1.5
	c-24.6-1.1-37.9-5.2-46.8-8.7c-10.9-4-20.8-10.5-29-18.8c-8.4-8.1-14.8-18-18.8-29c-3.5-8.9-7.6-22.2-8.7-46.8
	c-1.2-26.6-1.5-34.5-1.5-101.8s0.3-75.2,1.5-101.8c1.1-24.6,5.2-37.9,8.7-46.8c4-10.9,10.5-20.8,18.8-29c8.1-8.4,18-14.8,29-18.8
	c8.9-3.5,22.2-7.6,46.8-8.7C180.8,49.7,188.7,49.5,256,49.5 M256,4.1c-68.4,0-77,0.3-103.9,1.5C125.3,6.8,107,11.1,91,17.3
	c-16.8,6.3-32,16.2-44.6,29.1C33.5,58.9,23.6,74.2,17.3,91c-6.2,16-10.5,34.3-11.7,61.2C4.4,179,4.1,187.6,4.1,256s0.3,77,1.5,103.9
	c1.2,26.8,5.5,45.1,11.7,61.2c6.3,16.8,16.2,32,29.1,44.6C59,478.5,74.2,488.4,91,494.7c16,6.2,34.3,10.5,61.2,11.7
	c26.9,1.2,35.4,1.5,103.9,1.5s77-0.3,103.9-1.5c26.8-1.2,45.1-5.5,61.2-11.7c33.8-13.1,60.6-39.8,73.7-73.7
	c6.2-16,10.5-34.3,11.7-61.2c1.2-26.9,1.5-35.4,1.5-103.9s-0.3-77-1.5-103.9c-1.2-26.8-5.5-45.1-11.7-61.2
	c-6.3-16.8-16.2-32-29.1-44.6c-12.6-12.8-27.8-22.7-44.6-29.1c-16-6.2-34.3-10.5-61.2-11.7C333,4.4,324.4,4.1,256,4.1L256,4.1
	L256,4.1z"/>
<path class="st0" d="M256,126.6c-71.4,0-129.4,57.9-129.4,129.4S184.6,385.4,256,385.4S385.4,327.4,385.4,256l0,0
	C385.4,184.6,327.4,126.6,256,126.6z M256,340c-46.4,0-84-37.6-84-84s37.6-84,84-84c46.4,0,84,37.6,84,84
	C340,302.4,302.4,340,256,340z"/>
<circle class="st0" cx="390.5" cy="121.5" r="30.2"/>
</svg>
