<svg xmlns="http://www.w3.org/2000/svg" viewBox="0 0 41.49 39.36"><defs><style>.cls-1{fill:#60b22f;}.cls-2{fill:#1d1d1b;}</style></defs><g id="Lag_2" data-name="Lag 2"><g id="Lag_2-2" data-name="Lag 2"><polygon class="cls-1" points="6 20.38 40.49 20.41 39.82 21.84 23.3 38.36 6 20.38"/><path class="cls-2" d="M1,21.14H4.88l-.71-.29L20.29,36.79l2.31,2.28a1,1,0,0,0,1.41,0l15-15,2.17-2.18a1,1,0,0,0,0-1.41l-18-17.69L20.61.29c-.92-.9-2.33.51-1.41,1.41l18,17.69,2.55,2.49V20.47l-15,15L22.6,37.66H24L6,19.82c-1.22-1.2-3.42-.68-5-.68a1,1,0,0,0,0,2Z"/><path class="cls-2" d="M9.91,8.17H1.68a.76.76,0,0,0-.53,1.29l4.11,5.06a.75.75,0,0,0,1.06,0l4.12-5.06a.8.8,0,0,0,0-1.07.76.76,0,0,0-1.06,0L5.26,13.46H6.32L2.21,8.39,1.68,9.67H9.91A.75.75,0,0,0,9.91,8.17Z"/><path class="cls-2" d="M6.54,8.92V3.08a.75.75,0,0,0-1.5,0V8.92a.75.75,0,0,0,1.5,0Z"/></g></g></svg>