<svg xmlns="http://www.w3.org/2000/svg" viewBox="0 0 41.49 39.36"><defs><style>.cls-1{fill:#1d1d1b;}</style></defs><g id="Lag_2" data-name="Lag 2"><g id="Lag_2-2" data-name="Lag 2"><path class="cls-1" d="M1,21.14H4.88l-.71-.29L20.29,36.79l2.31,2.28a1,1,0,0,0,1.41,0l15-15,2.17-2.18a1,1,0,0,0,0-1.41l-18-17.69L20.61.29c-.92-.9-2.33.51-1.41,1.41l18,17.69,2.55,2.49V20.47l-15,15L22.6,37.66H24L6,19.82c-1.22-1.2-3.42-.68-5-.68a1,1,0,0,0,0,2Z"/><path class="cls-1" d="M1.68,8.9H9.91a.76.76,0,0,0,.53-1.28L6.32,2.55a.75.75,0,0,0-1.06,0L1.15,7.62a.76.76,0,0,0,0,1.06.76.76,0,0,0,1.06,0L6.32,3.61H5.26L9.38,8.68,9.91,7.4H1.68A.75.75,0,0,0,1.68,8.9Z"/><path class="cls-1" d="M5,8.15V14a.75.75,0,0,0,1.5,0V8.15a.75.75,0,0,0-1.5,0Z"/></g></g></svg>