<svg xmlns="http://www.w3.org/2000/svg" width="41.471" height="39.36" viewBox="0 0 41.471 39.36">
  <g id="Group_53" data-name="Group 53" transform="translate(-104.786 -440.654)">
    <g id="Lag_2" data-name="Lag 2" transform="translate(104.786 440.652)">
      <g id="Lag_2-2" data-name="Lag 2">
        <path id="Path_79" data-name="Path 79" d="M1,21.14H4.88l-.71-.29L20.29,36.79l2.31,2.28a1,1,0,0,0,1.41,0l15-15,2.17-2.18a1,1,0,0,0,0-1.41l-18-17.69L20.61.29c-.92-.9-2.33.51-1.41,1.41l18,17.69,2.55,2.49V20.47l-15,15L22.6,37.66H24L6,19.82c-1.22-1.2-3.42-.68-5-.68a1,1,0,0,0,0,2Z" fill="#444441"/>
        <path id="Path_80" data-name="Path 80" d="M1.68,8.9H9.91a.76.76,0,0,0,.53-1.28L6.32,2.55a.75.75,0,0,0-1.06,0L1.15,7.62A.75.75,0,0,0,2.21,8.68L6.32,3.61H5.26L9.38,8.68,9.91,7.4H1.68a.75.75,0,1,0,0,1.5Z" fill="#444441"/>
        <path id="Path_81" data-name="Path 81" d="M5,8.15V14a.75.75,0,1,0,1.5,0V8.15a.75.75,0,0,0-1.5,0Z" fill="#444441"/>
      </g>
    </g>
  </g>
</svg>
