<svg xmlns="http://www.w3.org/2000/svg" viewBox="0 0 26.35 21.19"><defs><style>.cls-1{fill:#60b22f;}.cls-2{fill:#1d1d1b;}</style></defs><g id="Lag_2" data-name="Lag 2"><g id="Lag_2-2" data-name="Lag 2"><circle class="cls-1" cx="2.55" cy="2.55" r="2.55"/><circle class="cls-1" cx="2.55" cy="18.64" r="2.55"/><circle class="cls-1" cx="2.55" cy="10.6" r="2.55"/><line class="cls-1" x1="9.85" y1="2.55" x2="25.39" y2="2.55"/><path class="cls-2" d="M9.85,3.55H25.39a1,1,0,0,0,0-2H9.85a1,1,0,0,0,0,2Z"/><line class="cls-1" x1="9.85" y1="10.6" x2="22.1" y2="10.6"/><path class="cls-2" d="M9.85,11.6H22.1a1,1,0,0,0,0-2H9.85a1,1,0,0,0,0,2Z"/><line class="cls-1" x1="9.85" y1="18.64" x2="20.12" y2="18.64"/><path class="cls-2" d="M9.85,19.64H20.12a1,1,0,0,0,0-2H9.85a1,1,0,0,0,0,2Z"/></g></g></svg>