<svg xmlns="http://www.w3.org/2000/svg" viewBox="0 0 24.64 34.16"><defs><style>.cls-1{fill:#5f5f5e;}.cls-2{fill:#60b22f;}</style></defs><g id="Lag_2" data-name="Lag 2"><g id="Lag_2-2" data-name="Lag 2"><path class="cls-1" d="M19.41,16.85A7.1,7.1,0,0,1,6.8,21.33,7.1,7.1,0,0,1,13.6,9.87a7.18,7.18,0,0,1,5.81,7,1,1,0,0,0,2,0,9.2,9.2,0,0,0-5.93-8.52,9.1,9.1,0,0,0-11,13.18A9.22,9.22,0,0,0,14,25.79a9.2,9.2,0,0,0,7.39-8.94A1,1,0,0,0,19.41,16.85Z"/><circle class="cls-2" cx="12.32" cy="16.85" r="3.41"/><path class="cls-1" d="M18.85,11.94l5.5-5.53a1,1,0,0,0,.16-1.21C22.44,2.05,18.06.59,14.51.14A16.27,16.27,0,0,0,.38,5.2c-.88,1,.54,2.37,1.41,1.42A14.33,14.33,0,0,1,14.25,2.1c2.87.36,6.83,1.52,8.53,4.11L22.94,5l-5.51,5.53a1,1,0,0,0,1.42,1.41Z"/><path class="cls-1" d="M4.6,9.46A11.32,11.32,0,0,1,9,6.74c4-1.41,8-.17,11.25,2.41,1,.8,2.42-.61,1.42-1.41C18,4.8,13.38,3.22,8.76,4.7A13.61,13.61,0,0,0,3.19,8.05C2.3,9,3.71,10.4,4.6,9.46Z"/><path class="cls-1" d="M6,22,.29,27.74A1,1,0,0,0,.14,29c2.07,3.15,6.44,4.61,10,5.06A16.24,16.24,0,0,0,24.26,29c.88-.94-.53-2.36-1.41-1.41a14.33,14.33,0,0,1-12.46,4.51C7.52,31.7,3.56,30.53,1.86,28l-.15,1.21,5.72-5.75A1,1,0,0,0,6,22Z"/><path class="cls-1" d="M20,24.69a11.21,11.21,0,0,1-4.36,2.72c-4,1.42-8,.18-11.25-2.4-1-.8-2.42.61-1.41,1.41,3.67,2.93,8.24,4.52,12.86,3a13.65,13.65,0,0,0,5.58-3.35c.88-.93-.53-2.35-1.42-1.42Z"/></g></g></svg>