<svg xmlns="http://www.w3.org/2000/svg" viewBox="0 0 22.8 35.06"><defs><style>.cls-1{fill:#60b22f;}.cls-2{fill:#1d1d1b;}.cls-3{fill:#fff;}</style></defs><g id="Lag_2" data-name="Lag 2"><g id="Lag_2-2" data-name="Lag 2"><path class="cls-1" d="M16.57,14.67V4.35a5.65,5.65,0,0,0-10.34,0V14.67a10.41,10.41,0,1,0,10.34,0Z"/><path class="cls-2" d="M17.57,14.67V8.27c0-1.15,0-2.3,0-3.45A4.31,4.31,0,0,0,16,1.89a6.74,6.74,0,0,0-8.61-.62A5.11,5.11,0,0,0,5.23,4.45a25.41,25.41,0,0,0,0,2.76v7.46l.5-.86a11.4,11.4,0,0,0-.41,19.53,11.51,11.51,0,0,0,17.36-8,11.53,11.53,0,0,0-5.6-11.53,1,1,0,0,0-1,1.72,9.4,9.4,0,0,1-1.42,17,9.4,9.4,0,0,1-9.32-16c.81-.69,1.87-1,1.9-2.12.07-2,0-4.09,0-6.13v-3a7.48,7.48,0,0,1,0-.82c0-.08,0-.19,0,0s.09-.11.11-.13.23-.4.36-.58a4.67,4.67,0,0,1,6.91-.46c.31.29.5.69.79,1s.15,0,.18.16a4.61,4.61,0,0,1,0,.91v9.31A1,1,0,0,0,17.57,14.67Z"/><path class="cls-3" d="M15.58,8.86V4.43c-3.4-5.47-8.37-1.24-8.35,0V8.76Z"/></g></g></svg>