<svg xmlns="http://www.w3.org/2000/svg" width="500" height="500" viewBox="0 0 500 500"><g id="Group_479" data-name="Group 479" transform="translate(-447.28 -194.674)"><ellipse id="Ellipse_44" data-name="Ellipse 44" cx="250" cy="250" rx="250" ry="250" transform="translate(447.28 194.674)" fill="#5cb71d"></ellipse><g id="Group_231" data-name="Group 231" transform="translate(497.958 407.128)"><path id="Path_857" data-name="Path 857" d="M536.122,282.276a4.677,4.677,0,0,0-4.677,4.677V338.16l-54.51-54.513a4.677,4.677,0,0,0-7.984,3.307v62.5a4.677,4.677,0,1,0,9.354,0V298.244l54.511,54.513a4.677,4.677,0,0,0,7.984-3.307v-62.5A4.676,4.676,0,0,0,536.122,282.276Z" transform="translate(-468.95 -280.656)" fill="#fff"></path><path id="Path_858" data-name="Path 858" d="M546.825,281.583a37.545,37.545,0,1,0,37.547,37.546A37.588,37.588,0,0,0,546.825,281.583Zm0,65.736a28.191,28.191,0,1,1,28.192-28.19A28.222,28.222,0,0,1,546.825,347.319Z" transform="translate(-409.27 -281.583)" fill="#fff"></path><path id="Path_859" data-name="Path 859" d="M632.215,282.276a4.676,4.676,0,0,0-4.677,4.677v62.5a4.677,4.677,0,0,0,9.354,0v-62.5A4.677,4.677,0,0,0,632.215,282.276Z" transform="translate(-238.247 -280.655)" fill="#fff"></path><path id="Path_860" data-name="Path 860" d="M613.909,304.914a22.687,22.687,0,0,0-22.661-22.661H555.525a4.676,4.676,0,0,0-4.677,4.677v62.551a4.677,4.677,0,1,0,9.354,0V327.575H578.6l25.374,25.374a4.677,4.677,0,0,0,6.614-6.614l-18.789-18.788A22.673,22.673,0,0,0,613.909,304.914Zm-22.661,13.307H560.2V291.607h31.045a13.307,13.307,0,1,1,0,26.613Z" transform="translate(-348.2 -280.686)" fill="#fff"></path></g><path id="Path_861" data-name="Path 861" d="M654.127,342.126a37.671,37.671,0,1,0-6.614,6.614l6.562,6.562a4.677,4.677,0,0,0,6.614-6.614Zm-29.611,5.192a28.281,28.281,0,1,1,22.937-11.864L643.2,331.2a4.677,4.677,0,0,0-6.614,6.614l4.256,4.259A28.014,28.014,0,0,1,624.516,347.318Z" transform="translate(201.793 125.547)" fill="#fff"></path></g></svg>